<svg width="147" height="17" viewBox="0 0 147 17" fill="none" xmlns="http://www.w3.org/2000/svg">
<path d="M5.94 16C5.69067 16 5.49267 15.934 5.346 15.802C5.19933 15.67 5.09667 15.516 5.038 15.34L0.55 1.26C0.520667 1.18667 0.506 1.12067 0.506 1.062C0.506 0.944666 0.55 0.841999 0.638 0.754C0.740667 0.651332 0.858 0.599999 0.99 0.599999H3.718C3.95267 0.599999 4.136 0.665999 4.268 0.797999C4.4 0.929999 4.48067 1.05467 4.51 1.172L7.612 11.336L10.736 1.172C10.78 1.05467 10.8607 0.929999 10.978 0.797999C11.11 0.665999 11.2933 0.599999 11.528 0.599999H14.256C14.388 0.599999 14.498 0.651332 14.586 0.754C14.6887 0.841999 14.74 0.944666 14.74 1.062C14.74 1.12067 14.7253 1.18667 14.696 1.26L10.208 15.34C10.1493 15.516 10.0467 15.67 9.9 15.802C9.768 15.934 9.57 16 9.306 16H5.94ZM20.5403 16.22C18.8096 16.22 17.4309 15.7507 16.4043 14.812C15.3776 13.8733 14.8423 12.48 14.7983 10.632C14.7983 10.5293 14.7983 10.3973 14.7983 10.236C14.7983 10.0747 14.7983 9.95 14.7983 9.862C14.8423 8.70333 15.0989 7.71333 15.5683 6.892C16.0523 6.056 16.7123 5.42533 17.5483 5C18.3989 4.56 19.3889 4.34 20.5183 4.34C21.8089 4.34 22.8723 4.59667 23.7083 5.11C24.5589 5.62333 25.1969 6.32 25.6223 7.2C26.0476 8.08 26.2603 9.08467 26.2603 10.214V10.742C26.2603 10.9033 26.2016 11.0353 26.0843 11.138C25.9816 11.2407 25.8569 11.292 25.7103 11.292H18.6703C18.6703 11.3067 18.6703 11.3287 18.6703 11.358C18.6703 11.3873 18.6703 11.4167 18.6703 11.446C18.6849 11.8713 18.7583 12.26 18.8903 12.612C19.0223 12.964 19.2276 13.2427 19.5063 13.448C19.7849 13.6533 20.1223 13.756 20.5183 13.756C20.8116 13.756 21.0536 13.712 21.2443 13.624C21.4496 13.5213 21.6183 13.4113 21.7503 13.294C21.8823 13.162 21.9849 13.052 22.0583 12.964C22.1903 12.8173 22.2929 12.7293 22.3663 12.7C22.4543 12.656 22.5863 12.634 22.7623 12.634H25.4903C25.6369 12.634 25.7543 12.678 25.8423 12.766C25.9449 12.8393 25.9889 12.9493 25.9743 13.096C25.9596 13.3453 25.8349 13.646 25.6003 13.998C25.3656 14.35 25.0209 14.702 24.5663 15.054C24.1263 15.3913 23.5689 15.67 22.8943 15.89C22.2196 16.11 21.4349 16.22 20.5403 16.22ZM18.6703 9.114H22.3883V9.07C22.3883 8.60067 22.3149 8.19 22.1683 7.838C22.0363 7.486 21.8236 7.21467 21.5303 7.024C21.2516 6.83333 20.9143 6.738 20.5183 6.738C20.1223 6.738 19.7849 6.83333 19.5063 7.024C19.2423 7.21467 19.0369 7.486 18.8903 7.838C18.7436 8.19 18.6703 8.60067 18.6703 9.07V9.114ZM28.7628 16C28.6014 16 28.4694 15.9487 28.3668 15.846C28.2641 15.7433 28.2128 15.6113 28.2128 15.45V5.11C28.2128 4.94867 28.2641 4.81667 28.3668 4.714C28.4694 4.61133 28.6014 4.56 28.7628 4.56H31.2928C31.4541 4.56 31.5861 4.61133 31.6888 4.714C31.7914 4.81667 31.8428 4.94867 31.8428 5.11V5.946C32.2241 5.49133 32.7228 5.11 33.3388 4.802C33.9548 4.494 34.6808 4.34 35.5168 4.34C36.3674 4.34 37.1154 4.53067 37.7608 4.912C38.4208 5.29333 38.9341 5.858 39.3008 6.606C39.6821 7.33933 39.8728 8.24133 39.8728 9.312V15.45C39.8728 15.6113 39.8141 15.7433 39.6968 15.846C39.5941 15.9487 39.4694 16 39.3228 16H36.5508C36.4041 16 36.2721 15.9487 36.1548 15.846C36.0521 15.7433 36.0008 15.6113 36.0008 15.45V9.444C36.0008 8.75467 35.8321 8.22667 35.4948 7.86C35.1721 7.47867 34.6881 7.288 34.0428 7.288C33.4414 7.288 32.9574 7.47867 32.5908 7.86C32.2388 8.22667 32.0628 8.75467 32.0628 9.444V15.45C32.0628 15.6113 32.0041 15.7433 31.8868 15.846C31.7841 15.9487 31.6594 16 31.5128 16H28.7628ZM47.9626 16C47.0239 16 46.2099 15.8533 45.5206 15.56C44.8459 15.252 44.3252 14.7827 43.9586 14.152C43.5919 13.5067 43.4086 12.678 43.4086 11.666V7.442H41.6926C41.5312 7.442 41.3919 7.39067 41.2746 7.288C41.1719 7.18533 41.1206 7.05333 41.1206 6.892V5.11C41.1206 4.94867 41.1719 4.81667 41.2746 4.714C41.3919 4.61133 41.5312 4.56 41.6926 4.56H43.4086V0.929999C43.4086 0.768666 43.4599 0.636666 43.5626 0.534C43.6799 0.431333 43.8119 0.379999 43.9586 0.379999H46.5106C46.6719 0.379999 46.8039 0.431333 46.9066 0.534C47.0092 0.636666 47.0606 0.768666 47.0606 0.929999V4.56H49.8106C49.9719 4.56 50.1039 4.61133 50.2066 4.714C50.3092 4.81667 50.3606 4.94867 50.3606 5.11V6.892C50.3606 7.05333 50.3092 7.18533 50.2066 7.288C50.1039 7.39067 49.9719 7.442 49.8106 7.442H47.0606V11.358C47.0606 11.8567 47.1559 12.2527 47.3466 12.546C47.5372 12.8393 47.8599 12.986 48.3146 12.986H50.0086C50.1699 12.986 50.3019 13.0373 50.4046 13.14C50.5072 13.2427 50.5586 13.3747 50.5586 13.536V15.45C50.5586 15.6113 50.5072 15.7433 50.4046 15.846C50.3019 15.9487 50.1699 16 50.0086 16H47.9626ZM56.4721 16.22C55.6361 16.22 54.8881 16.0293 54.2281 15.648C53.5828 15.2667 53.0768 14.7093 52.7101 13.976C52.3434 13.228 52.1601 12.3187 52.1601 11.248V5.11C52.1601 4.94867 52.2114 4.81667 52.3141 4.714C52.4168 4.61133 52.5488 4.56 52.7101 4.56H55.4601C55.6214 4.56 55.7534 4.61133 55.8561 4.714C55.9588 4.81667 56.0101 4.94867 56.0101 5.11V11.116C56.0101 12.5533 56.6554 13.272 57.9461 13.272C58.5474 13.272 59.0241 13.0887 59.3761 12.722C59.7428 12.3407 59.9261 11.8053 59.9261 11.116V5.11C59.9261 4.94867 59.9774 4.81667 60.0801 4.714C60.1828 4.61133 60.3148 4.56 60.4761 4.56H63.2261C63.3874 4.56 63.5194 4.61133 63.6221 4.714C63.7248 4.81667 63.7761 4.94867 63.7761 5.11V15.45C63.7761 15.6113 63.7248 15.7433 63.6221 15.846C63.5194 15.9487 63.3874 16 63.2261 16H60.6741C60.5274 16 60.3954 15.9487 60.2781 15.846C60.1754 15.7433 60.1241 15.6113 60.1241 15.45V14.614C59.7428 15.142 59.2441 15.5453 58.6281 15.824C58.0268 16.088 57.3081 16.22 56.4721 16.22ZM66.8039 16C66.6425 16 66.5105 15.9487 66.4079 15.846C66.3052 15.7433 66.2539 15.6113 66.2539 15.45V5.11C66.2539 4.96333 66.3052 4.83867 66.4079 4.736C66.5105 4.61867 66.6425 4.56 66.8039 4.56H69.3339C69.4952 4.56 69.6272 4.61867 69.7299 4.736C69.8325 4.83867 69.8839 4.96333 69.8839 5.11V5.99C70.2799 5.53533 70.7492 5.18333 71.2919 4.934C71.8492 4.68467 72.4725 4.56 73.1619 4.56H74.1299C74.2765 4.56 74.4012 4.61133 74.5039 4.714C74.6212 4.81667 74.6799 4.94867 74.6799 5.11V7.376C74.6799 7.52267 74.6212 7.65467 74.5039 7.772C74.4012 7.87467 74.2765 7.926 74.1299 7.926H71.9959C71.3945 7.926 70.9252 8.09467 70.5879 8.432C70.2652 8.75467 70.1039 9.21667 70.1039 9.818V15.45C70.1039 15.6113 70.0452 15.7433 69.9279 15.846C69.8252 15.9487 69.6932 16 69.5319 16H66.8039ZM81.3282 16.22C79.5975 16.22 78.2188 15.7507 77.1922 14.812C76.1655 13.8733 75.6302 12.48 75.5862 10.632C75.5862 10.5293 75.5862 10.3973 75.5862 10.236C75.5862 10.0747 75.5862 9.95 75.5862 9.862C75.6302 8.70333 75.8868 7.71333 76.3562 6.892C76.8402 6.056 77.5002 5.42533 78.3362 5C79.1868 4.56 80.1768 4.34 81.3062 4.34C82.5968 4.34 83.6602 4.59667 84.4962 5.11C85.3468 5.62333 85.9848 6.32 86.4102 7.2C86.8355 8.08 87.0482 9.08467 87.0482 10.214V10.742C87.0482 10.9033 86.9895 11.0353 86.8722 11.138C86.7695 11.2407 86.6448 11.292 86.4982 11.292H79.4582C79.4582 11.3067 79.4582 11.3287 79.4582 11.358C79.4582 11.3873 79.4582 11.4167 79.4582 11.446C79.4728 11.8713 79.5462 12.26 79.6782 12.612C79.8102 12.964 80.0155 13.2427 80.2942 13.448C80.5728 13.6533 80.9102 13.756 81.3062 13.756C81.5995 13.756 81.8415 13.712 82.0322 13.624C82.2375 13.5213 82.4062 13.4113 82.5382 13.294C82.6702 13.162 82.7728 13.052 82.8462 12.964C82.9782 12.8173 83.0808 12.7293 83.1542 12.7C83.2422 12.656 83.3742 12.634 83.5502 12.634H86.2782C86.4248 12.634 86.5422 12.678 86.6302 12.766C86.7328 12.8393 86.7768 12.9493 86.7622 13.096C86.7475 13.3453 86.6228 13.646 86.3882 13.998C86.1535 14.35 85.8088 14.702 85.3542 15.054C84.9142 15.3913 84.3568 15.67 83.6822 15.89C83.0075 16.11 82.2228 16.22 81.3282 16.22ZM79.4582 9.114H83.1762V9.07C83.1762 8.60067 83.1028 8.19 82.9562 7.838C82.8242 7.486 82.6115 7.21467 82.3182 7.024C82.0395 6.83333 81.7022 6.738 81.3062 6.738C80.9102 6.738 80.5728 6.83333 80.2942 7.024C80.0302 7.21467 79.8248 7.486 79.6782 7.838C79.5315 8.19 79.4582 8.60067 79.4582 9.07V9.114ZM94.3663 16C94.2049 16 94.0729 15.9487 93.9703 15.846C93.8676 15.7433 93.8163 15.6113 93.8163 15.45V1.15C93.8163 0.988666 93.8676 0.856666 93.9703 0.754C94.0729 0.651332 94.2049 0.599999 94.3663 0.599999H104.464C104.626 0.599999 104.758 0.651332 104.86 0.754C104.978 0.856666 105.036 0.988666 105.036 1.15V3.372C105.036 3.53333 104.978 3.66533 104.86 3.768C104.758 3.87067 104.626 3.922 104.464 3.922H97.6883V7.156H104.024C104.186 7.156 104.318 7.21467 104.42 7.332C104.538 7.43467 104.596 7.56667 104.596 7.728V9.928C104.596 10.0747 104.538 10.2067 104.42 10.324C104.318 10.4267 104.186 10.478 104.024 10.478H97.6883V15.45C97.6883 15.6113 97.6369 15.7433 97.5343 15.846C97.4316 15.9487 97.2996 16 97.1383 16H94.3663ZM111.137 16.22C110.301 16.22 109.553 16.0293 108.893 15.648C108.248 15.2667 107.742 14.7093 107.375 13.976C107.008 13.228 106.825 12.3187 106.825 11.248V5.11C106.825 4.94867 106.876 4.81667 106.979 4.714C107.082 4.61133 107.214 4.56 107.375 4.56H110.125C110.286 4.56 110.418 4.61133 110.521 4.714C110.624 4.81667 110.675 4.94867 110.675 5.11V11.116C110.675 12.5533 111.32 13.272 112.611 13.272C113.212 13.272 113.689 13.0887 114.041 12.722C114.408 12.3407 114.591 11.8053 114.591 11.116V5.11C114.591 4.94867 114.642 4.81667 114.745 4.714C114.848 4.61133 114.98 4.56 115.141 4.56H117.891C118.052 4.56 118.184 4.61133 118.287 4.714C118.39 4.81667 118.441 4.94867 118.441 5.11V15.45C118.441 15.6113 118.39 15.7433 118.287 15.846C118.184 15.9487 118.052 16 117.891 16H115.339C115.192 16 115.06 15.9487 114.943 15.846C114.84 15.7433 114.789 15.6113 114.789 15.45V14.614C114.408 15.142 113.909 15.5453 113.293 15.824C112.692 16.088 111.973 16.22 111.137 16.22ZM121.469 16C121.307 16 121.175 15.9487 121.073 15.846C120.97 15.7433 120.919 15.6113 120.919 15.45V5.11C120.919 4.94867 120.97 4.81667 121.073 4.714C121.175 4.61133 121.307 4.56 121.469 4.56H123.999C124.16 4.56 124.292 4.61133 124.395 4.714C124.497 4.81667 124.549 4.94867 124.549 5.11V5.946C124.93 5.49133 125.429 5.11 126.045 4.802C126.661 4.494 127.387 4.34 128.223 4.34C129.073 4.34 129.821 4.53067 130.467 4.912C131.127 5.29333 131.64 5.858 132.007 6.606C132.388 7.33933 132.579 8.24133 132.579 9.312V15.45C132.579 15.6113 132.52 15.7433 132.403 15.846C132.3 15.9487 132.175 16 132.029 16H129.257C129.11 16 128.978 15.9487 128.861 15.846C128.758 15.7433 128.707 15.6113 128.707 15.45V9.444C128.707 8.75467 128.538 8.22667 128.201 7.86C127.878 7.47867 127.394 7.288 126.749 7.288C126.147 7.288 125.663 7.47867 125.297 7.86C124.945 8.22667 124.769 8.75467 124.769 9.444V15.45C124.769 15.6113 124.71 15.7433 124.593 15.846C124.49 15.9487 124.365 16 124.219 16H121.469ZM139.192 16.22C138.488 16.22 137.85 16.11 137.278 15.89C136.721 15.6553 136.237 15.318 135.826 14.878C135.43 14.4233 135.122 13.8807 134.902 13.25C134.682 12.6047 134.557 11.8713 134.528 11.05C134.513 10.7567 134.506 10.5 134.506 10.28C134.506 10.0453 134.513 9.78867 134.528 9.51C134.557 8.718 134.682 8.00667 134.902 7.376C135.122 6.74533 135.43 6.20267 135.826 5.748C136.222 5.29333 136.706 4.94867 137.278 4.714C137.85 4.46467 138.488 4.34 139.192 4.34C139.925 4.34 140.556 4.46467 141.084 4.714C141.612 4.94867 142.059 5.25667 142.426 5.638V0.929999C142.426 0.768666 142.477 0.636666 142.58 0.534C142.683 0.431333 142.815 0.379999 142.976 0.379999H145.66C145.807 0.379999 145.931 0.431333 146.034 0.534C146.151 0.636666 146.21 0.768666 146.21 0.929999V15.45C146.21 15.6113 146.151 15.7433 146.034 15.846C145.931 15.9487 145.807 16 145.66 16H143.174C143.013 16 142.881 15.9487 142.778 15.846C142.675 15.7433 142.624 15.6113 142.624 15.45V14.746C142.272 15.1713 141.817 15.5233 141.26 15.802C140.703 16.0807 140.013 16.22 139.192 16.22ZM140.38 13.272C140.879 13.272 141.267 13.1693 141.546 12.964C141.839 12.744 142.052 12.4653 142.184 12.128C142.331 11.7907 142.411 11.424 142.426 11.028C142.441 10.7347 142.448 10.456 142.448 10.192C142.448 9.928 142.441 9.65667 142.426 9.378C142.411 9.01133 142.331 8.674 142.184 8.366C142.037 8.04333 141.817 7.78667 141.524 7.596C141.231 7.39067 140.849 7.288 140.38 7.288C139.896 7.288 139.507 7.39067 139.214 7.596C138.935 7.80133 138.737 8.08 138.62 8.432C138.503 8.784 138.429 9.17267 138.4 9.598C138.356 10.0527 138.356 10.5073 138.4 10.962C138.429 11.3873 138.503 11.776 138.62 12.128C138.737 12.48 138.935 12.7587 139.214 12.964C139.507 13.1693 139.896 13.272 140.38 13.272Z" fill="black"/>
</svg>
